<?xml version="1.0" encoding="UTF-8"?>
<svg xmlns="http://www.w3.org/2000/svg" xmlns:xlink="http://www.w3.org/1999/xlink" width="50px" height="50px" viewBox="0 0 50 50" version="1.1">
<g id="surface1">
<path style=" stroke:none;fill-rule:evenodd;fill:rgb(92.156863%,29.019608%,29.411765%);fill-opacity:1;" d="M 14.441406 13.851562 C 14.78125 17.457031 15.121094 21.042969 15.46875 24.710938 C 16.035156 23.734375 16.445312 22.800781 17.066406 22.035156 C 17.640625 21.320312 18.367188 20.664062 19.15625 20.207031 C 20.1875 19.613281 21.542969 20.171875 21.875 21.226562 C 21.964844 21.511719 21.75 21.890625 21.675781 22.226562 C 21.425781 22.09375 21.097656 22.019531 20.933594 21.816406 C 20.234375 20.949219 19.8125 20.847656 19.039062 21.597656 C 17.59375 22.992188 16.78125 24.742188 16.46875 26.710938 C 16.410156 27.089844 16.648438 27.515625 16.75 27.921875 C 17.144531 27.785156 17.601562 27.738281 17.921875 27.5 C 18.957031 26.726562 19.601562 25.675781 19.957031 24.421875 C 20.03125 24.148438 20.449219 23.972656 20.710938 23.753906 C 20.835938 24.011719 21.121094 24.3125 21.0625 24.515625 C -2.957031 98.933594 -81.335938 141.21875 -156.71875 120.429688 C -232.101562 99.644531 -277.730469 23.160156 -260.210938 -53.050781 C -242.691406 -129.257812 -168.242188 -178.140625 -91.351562 -163.921875 C -14.457031 -149.703125 37.585938 -77.433594 26.699219 0 C 26.632812 0.1875 26.289062 0.285156 26.070312 0.421875 C 25.984375 0.171875 25.800781 -0.0859375 25.832031 -0.320312 C 25.894531 -0.851562 26.066406 -1.367188 26.1875 -1.855469 L 23.359375 -0.554688 C 23.515625 1.253906 23.679688 3.277344 23.875 5.300781 C 24.023438 6.84375 24.277344 7.246094 25.796875 7.539062 C 27.574219 7.878906 29.378906 8.097656 31.183594 8.230469 C 37.871094 16.445312 38.265625 28.109375 32.148438 36.753906 C 26.027344 45.398438 14.898438 48.90625 4.929688 45.332031 C -5.039062 41.757812 -11.40625 31.976562 -10.636719 21.410156 C -9.867188 10.847656 -2.152344 2.09375 8.230469 0 C 9.195312 -0.257812 9.582031 -0.894531 9.652344 -1.84375 C 9.714844 -2.714844 9.855469 -3.582031 9.953125 -4.453125 C 10.144531 -6.167969 10.332031 -7.882812 10.53125 -9.671875 C 9.878906 -9.257812 9.367188 -8.796875 8.769531 -8.601562 C 8.332031 -8.460938 7.78125 -8.667969 7.28125 -8.71875 C 7.378906 -9.179688 7.371094 -9.695312 7.59375 -10.082031 C 7.953125 -10.714844 8.460938 -11.261719 8.90625 -11.847656 L 8.714844 -12.078125 C 8.398438 -11.886719 8 -11.765625 7.773438 -11.496094 C 7.3125 -10.953125 6.859375 -10.371094 6.550781 -9.730469 C 6.035156 -8.664062 5.640625 -7.535156 5.175781 -6.441406 C 4.976562 -5.964844 4.800781 -5.238281 4.128906 -5.515625 C 3.40625 -5.8125 3.914062 -6.449219 4.082031 -6.898438 C 4.351562 -7.621094 4.707031 -8.308594 4.949219 -8.835938 C 4.265625 -8.757812 3.574219 -8.660156 2.878906 -8.597656 C 2.585938 -8.574219 2.238281 -8.734375 1.996094 -8.625 C 1.199219 -8.265625 0.691406 -8.410156 0.527344 -9.292969 C 0.15625 -9.054688 -0.15625 -8.726562 -0.527344 -8.640625 C -0.972656 -8.535156 -1.582031 -8.464844 -1.910156 -8.6875 C -2.171875 -8.867188 -2.269531 -9.539062 -2.179688 -9.9375 C -2 -10.722656 -1.667969 -11.476562 -1.351562 -12.226562 C -1.152344 -12.6875 -0.957031 -13.425781 -0.296875 -13.105469 C 0.359375 -12.789062 -0.234375 -12.25 -0.386719 -11.820312 C -0.621094 -11.15625 -0.859375 -10.492188 -1.09375 -9.828125 L -0.71875 -9.601562 C -0.363281 -9.914062 0.0820312 -10.164062 0.332031 -10.546875 C 0.742188 -11.167969 0.988281 -11.894531 1.378906 -12.53125 C 1.539062 -12.796875 1.882812 -12.949219 2.144531 -13.152344 C 2.199219 -12.8125 2.324219 -12.46875 2.285156 -12.144531 C 2.242188 -11.816406 2.011719 -11.515625 1.902344 -11.1875 C 1.734375 -10.703125 1.601562 -10.203125 1.433594 -9.640625 C 2.230469 -9.609375 2.570312 -9.945312 2.796875 -10.535156 C 3.511719 -12.410156 4.230469 -14.28125 5.015625 -16.121094 C 5.148438 -16.4375 5.605469 -16.617188 5.914062 -16.859375 C 5.949219 -16.476562 6.117188 -16.046875 5.996094 -15.726562 C 5.355469 -14.027344 4.632812 -12.359375 3.953125 -10.671875 C 3.839844 -10.390625 3.804688 -10.074219 3.730469 -9.773438 C 4.925781 -10.3125 5.921875 -10.90625 6.289062 -12.175781 C 6.375 -12.484375 6.742188 -12.710938 6.980469 -12.976562 L 7.53125 -12.390625 C 7.699219 -12.535156 7.855469 -12.695312 8.035156 -12.8125 C 8.609375 -13.183594 9.230469 -13.507812 9.835938 -12.933594 C 10.460938 -12.34375 9.988281 -11.765625 9.660156 -11.253906 C 9.304688 -10.695312 8.867188 -10.1875 8.464844 -9.65625 C 9.367188 -10.238281 10.601562 -10.5 10.765625 -11.757812 C 11.164062 -14.828125 11.515625 -17.90625 11.875 -20.984375 C 11.980469 -21.898438 12.035156 -22.8125 12.117188 -23.761719 C 5.003906 -22.039062 -1.953125 -22.03125 -9.007812 -23.789062 Z M 17.492188 37.824219 C 17.835938 38.726562 18.355469 39.617188 18.492188 40.5625 C 18.78125 42.574219 18.851562 44.613281 19.054688 46.636719 C 19.085938 46.933594 19.277344 47.335938 19.515625 47.46875 C 23.023438 49.375 26.566406 49.703125 30.144531 47.621094 C 30.679688 47.308594 30.777344 46.898438 30.847656 46.320312 C 31.179688 43.515625 30.433594 40.539062 32.230469 37.898438 C 27.207031 39.144531 22.304688 39.183594 17.492188 37.824219 Z M 29.597656 14.355469 C 31.300781 14.191406 32.984375 13.789062 34.671875 13.460938 C 34.988281 13.398438 35.269531 13.15625 35.570312 12.996094 C 35.175781 12.652344 34.835938 12.484375 34.480469 12.441406 C 32.710938 12.234375 30.933594 12.074219 29.167969 11.855469 C 28.898438 11.820312 28.421875 11.492188 28.441406 11.429688 C 28.957031 9.875 28.933594 8.117188 30.105469 6.804688 C 31.582031 5.148438 33.078125 3.507812 34.5625 1.867188 C 33.460938 0.679688 33.445312 0.675781 32.445312 1.714844 C 31.878906 2.304688 31.363281 2.945312 30.746094 3.480469 C 28.476562 5.445312 26.882812 7.777344 26.570312 10.851562 C 26.5 11.554688 26.113281 11.808594 25.371094 11.820312 C 22.929688 11.855469 20.480469 11.925781 18.042969 12.085938 C 16.835938 12.164062 15.640625 12.472656 14.441406 12.679688 L 14.429688 13.128906 C 15.183594 13.359375 15.917969 13.664062 16.6875 13.8125 C 20.960938 14.632812 25.277344 14.773438 29.597656 14.355469 Z M 28.234375 13.28125 C 27.265625 14.0625 26.464844 14.0625 25.691406 13.28125 Z M 28.234375 13.28125 "/>
</g>
</svg>
