<?xml version="1.0" encoding="UTF-8"?>
<svg xmlns="http://www.w3.org/2000/svg" xmlns:xlink="http://www.w3.org/1999/xlink" width="50px" height="50px" viewBox="0 0 50 50" version="1.1">
<g id="surface1">
<path style=" stroke:none;fill-rule:nonzero;fill:rgb(3.137255%,40.784314%,67.45098%);fill-opacity:1;" d="M 3.757812 12.570312 C -0.546875 18.761719 -0.0117188 26.820312 3.277344 33.398438 C 3.355469 33.554688 3.4375 33.710938 3.519531 33.867188 L 3.675781 34.164062 L 3.769531 34.335938 L 3.941406 34.640625 C 4.042969 34.820312 4.148438 35 4.253906 35.179688 L 4.433594 35.476562 C 4.554688 35.667969 4.675781 35.855469 4.800781 36.046875 L 4.953125 36.285156 C 5.125 36.539062 5.300781 36.796875 5.484375 37.046875 L 5.5 37.066406 L 5.585938 37.1875 C 5.742188 37.402344 5.90625 37.617188 6.070312 37.828125 L 6.25 38.058594 C 6.394531 38.242188 6.542969 38.421875 6.695312 38.605469 L 6.863281 38.808594 C -7.46875 36.851562 -18.246094 24.761719 -18.554688 10.304688 C -18.863281 -4.15625 -8.609375 -16.695312 5.625 -19.261719 C 19.859375 -21.828125 33.84375 -13.660156 38.605469 0 L 38.617188 0.0117188 L 38.640625 0.0390625 C 50.449219 12.75 49.722656 32.625 37.019531 44.4375 C 24.3125 56.25 4.4375 55.535156 -7.378906 42.835938 C -19.199219 30.132812 -18.488281 10.257812 -5.796875 -1.566406 C 6.898438 -13.390625 26.773438 -12.6875 38.605469 0 L 38.804688 0.203125 C 38.972656 0.371094 39.140625 0.535156 39.308594 0.695312 L 39.515625 0.890625 C 39.742188 1.105469 39.96875 1.316406 40.203125 1.519531 L 40.214844 1.527344 L 40.335938 1.628906 C 40.539062 1.808594 40.75 1.984375 40.960938 2.160156 L 41.21875 2.367188 C 41.390625 2.503906 41.566406 2.640625 41.742188 2.773438 L 42.019531 2.984375 C 42.214844 3.128906 42.410156 3.269531 42.605469 3.40625 L 42.820312 3.554688 L 42.878906 3.597656 C 43.066406 3.726562 43.257812 3.851562 43.445312 3.976562 L 43.695312 4.140625 C 43.984375 4.324219 44.28125 4.507812 44.582031 4.683594 L 44.828125 4.824219 C 45.050781 4.949219 45.273438 5.074219 45.496094 5.199219 C 45.621094 5.261719 45.746094 5.324219 45.867188 5.386719 C 46.027344 5.472656 46.183594 5.554688 46.34375 5.636719 L 46.457031 5.691406 L 46.652344 5.785156 C 46.902344 5.902344 47.15625 6.023438 47.410156 6.136719 L 47.570312 6.207031 C 53.9375 18.070312 50.25 32.832031 39.050781 40.308594 C 27.851562 47.785156 12.804688 45.53125 4.289062 35.101562 C -4.226562 24.671875 -3.429688 9.480469 6.132812 0 L 6.351562 0.0859375 C 6.625 0.191406 6.902344 0.296875 7.183594 0.394531 L 7.289062 0.429688 C 7.597656 0.539062 7.90625 0.636719 8.21875 0.734375 L 8.445312 0.800781 C 8.761719 0.898438 9.074219 1.011719 9.402344 1.070312 C 30.238281 4.871094 36.292969 -11.449219 36.292969 -11.449219 C 31.207031 -4.824219 22.1875 -3.078125 13.636719 -5.023438 C 13.3125 -5.097656 13 -5.199219 12.683594 -5.292969 L 12.445312 -5.363281 C 14.714844 -20.308594 28.324219 -30.839844 43.359375 -29.28125 C 58.398438 -27.726562 69.558594 -14.632812 68.71875 0.460938 C 67.878906 15.554688 55.328125 27.328125 40.210938 27.203125 C 25.09375 27.082031 12.742188 15.105469 12.144531 0 L 12.019531 -0.046875 C 27.410156 -2.304688 41.726562 8.320312 44.027344 23.707031 C 46.324219 39.09375 35.738281 53.4375 20.359375 55.777344 C 4.980469 58.117188 -9.390625 47.570312 -11.773438 32.195312 C -14.15625 16.824219 -3.648438 2.421875 11.71875 0 L 11.492188 -0.0898438 C 11.199219 -0.207031 10.90625 -0.328125 10.617188 -0.453125 L 10.441406 -0.53125 C 21.441406 -17.199219 43.84375 -21.84375 60.5625 -10.921875 C 77.28125 0.00390625 82.023438 22.386719 71.171875 39.152344 C 60.320312 55.917969 37.957031 60.757812 21.144531 49.980469 C 4.332031 39.199219 -0.605469 16.859375 10.101562 0 L 9.886719 -0.101562 C 9.695312 -0.195312 9.503906 -0.296875 9.316406 -0.394531 C 9.1875 -0.460938 9.058594 -0.523438 8.933594 -0.59375 C 15.933594 -11.035156 30.046875 -13.875 40.542969 -6.957031 C 51.039062 -0.0390625 53.988281 14.050781 47.152344 24.601562 C 40.3125 35.148438 26.246094 38.207031 15.644531 31.453125 C 5.042969 24.695312 1.875 10.652344 8.550781 0 L 8.320312 -0.128906 C 25.355469 -3.996094 42.308594 6.636719 46.25 23.652344 C 50.191406 40.671875 39.632812 57.671875 22.636719 61.6875 C 5.636719 65.703125 -11.414062 55.222656 -15.503906 38.242188 C -19.59375 21.261719 -9.1875 4.164062 7.773438 0 L 7.535156 -0.160156 C 19.492188 -4.570312 32.765625 1.511719 37.234375 13.445312 C 41.707031 25.382812 35.6875 38.6875 23.773438 43.214844 C 11.859375 47.742188 -1.472656 41.789062 -6.058594 29.898438 C -10.644531 18.003906 -4.757812 4.644531 7.113281 0 L 6.910156 -0.144531 C 25.191406 -6.0625 44.820312 3.925781 50.796875 22.191406 C 56.773438 40.453125 46.851562 60.113281 28.605469 66.152344 C 10.363281 72.1875 -9.328125 62.332031 -15.425781 44.105469 C -21.523438 25.878906 -11.730469 6.15625 6.476562 0 L 6.210938 -0.199219 C 18.789062 -6.03125 33.714844 -0.605469 39.605469 11.945312 C 45.496094 24.496094 40.132812 39.445312 27.613281 45.394531 C 15.089844 51.34375 0.113281 46.054688 -5.894531 33.558594 C -11.898438 21.066406 -6.679688 6.066406 5.789062 0 L 5.546875 -0.195312 C 22.429688 -5.769531 40.648438 3.347656 46.304688 20.203125 C 51.960938 37.0625 42.925781 55.320312 26.097656 61.054688 C 9.265625 66.789062 -9.035156 57.839844 -14.847656 41.035156 C -20.660156 24.230469 -11.796875 5.890625 4.980469 0 L 4.90625 -0.0625 C 22.78125 -1.609375 38.550781 11.578125 40.183594 29.449219 C 41.820312 47.316406 28.710938 63.148438 10.851562 64.875 C -7.011719 66.597656 -22.90625 53.566406 -24.71875 35.714844 C -26.535156 17.863281 -13.582031 1.902344 4.261719 0 L 4.0625 -0.191406 C 3.890625 -0.355469 3.722656 -0.519531 3.554688 -0.691406 L 3.355469 -0.890625 C 12.601562 -12.839844 29.75 -15.113281 41.789062 -5.984375 C 53.832031 3.140625 56.277344 20.261719 47.273438 32.398438 C 38.269531 44.53125 21.171875 47.148438 8.949219 38.265625 C -3.277344 29.382812 -6.066406 12.3125 2.695312 0 L 2.664062 -0.03125 C 17.125 -0.492188 29.246094 10.804688 29.804688 25.261719 C 30.367188 39.71875 19.152344 51.917969 4.699219 52.574219 C -9.753906 53.234375 -22.03125 42.105469 -22.785156 27.65625 C -23.542969 13.207031 -12.5 0.855469 1.945312 0 L 1.777344 -0.195312 C 16.15625 -5.046875 31.75 2.625 36.679688 16.976562 C 41.605469 31.328125 34.019531 46.960938 19.695312 51.96875 C 5.371094 56.976562 -10.304688 49.472656 -15.390625 35.175781 C -20.472656 20.878906 -13.054688 5.160156 1.214844 0 L 1.046875 -0.207031 C 17.253906 -4.804688 34.125 4.546875 38.820312 20.726562 C 43.511719 36.902344 34.261719 53.832031 18.113281 58.621094 C 1.964844 63.410156 -15.023438 54.261719 -19.90625 38.140625 C -24.792969 22.019531 -15.742188 4.980469 0.347656 0 C -4.398438 -6.472656 -6.105469 -15.402344 -2.3125 -22.734375 M 7.699219 -23.6875 C 4.585938 -19.203125 4.753906 -13.199219 7.183594 -8.460938 C 16.332031 -8.722656 24.464844 -2.671875 26.835938 6.167969 C 29.210938 15.007812 25.203125 24.316406 17.152344 28.671875 C 9.101562 33.023438 -0.882812 31.277344 -6.980469 24.453125 C -13.078125 17.628906 -13.6875 7.511719 -8.460938 0 C -7.992188 0.667969 -7.476562 1.464844 -6.855469 2.003906 C -16.347656 1.796875 -24.195312 -5.457031 -25.148438 -14.902344 C -26.097656 -24.351562 -19.851562 -33.023438 -10.59375 -35.117188 C -1.332031 -37.210938 8.035156 -32.066406 11.242188 -23.132812 C 14.449219 -14.195312 10.484375 -4.269531 2.003906 0 L 2.1875 0.179688 C 10.0625 8.039062 10.097656 20.789062 2.261719 28.691406 C -5.570312 36.589844 -18.320312 36.667969 -26.246094 28.859375 C -34.171875 21.050781 -34.289062 8.300781 -26.503906 0.351562 C -18.722656 -7.601562 -5.972656 -7.757812 2.003906 0 L 2.03125 0.0234375 L 2.039062 0.03125 C 10.925781 7.972656 11.699219 21.613281 3.765625 30.507812 C -4.171875 39.398438 -17.8125 40.179688 -26.707031 32.25 C -35.605469 24.320312 -36.394531 10.679688 -28.46875 1.777344 C -20.542969 -7.125 -6.902344 -7.921875 2.003906 0 L 2.191406 0.148438 C 11.335938 7.355469 12.921875 20.605469 5.738281 29.769531 C -1.445312 38.933594 -14.691406 40.554688 -23.875 33.398438 C -33.058594 26.238281 -34.71875 13 -27.585938 3.796875 C -20.457031 -5.40625 -7.222656 -7.105469 2.003906 0 L 2.027344 0.0195312 C 2.160156 0.109375 2.292969 0.195312 2.425781 0.28125 L 2.613281 0.40625 C 2.828125 0.542969 3.042969 0.675781 3.261719 0.804688 L 3.351562 0.855469 C 3.542969 0.964844 3.734375 1.070312 3.925781 1.175781 L 4.128906 1.28125 C 4.261719 1.351562 4.394531 1.421875 4.527344 1.488281 L 4.589844 1.515625 C 4.863281 1.652344 5.140625 1.78125 5.421875 1.90625 L 5.605469 1.980469 C 5.832031 2.078125 6.0625 2.171875 6.289062 2.257812 L 6.582031 2.363281 C 6.792969 2.441406 7 2.511719 7.210938 2.582031 L 7.496094 2.675781 C 7.792969 2.765625 8.089844 2.882812 8.402344 2.9375 C 24.488281 5.601562 28.203125 -6.785156 28.203125 -6.785156 C 24.855469 -1.960938 18.375 0.339844 11.453125 -1.457031 C 13.757812 -11.933594 24.019531 -18.632812 34.535156 -16.53125 C 45.050781 -14.425781 51.945312 -4.292969 50.039062 6.261719 C 48.132812 16.8125 38.128906 23.898438 27.542969 22.191406 C 16.957031 20.484375 9.683594 10.617188 11.191406 0 L 10.917969 -0.0898438 C 20.007812 -3.691406 30.296875 0.738281 33.925781 9.816406 C 37.558594 18.894531 33.164062 29.199219 24.097656 32.859375 C 15.035156 36.519531 4.714844 32.160156 1.023438 23.105469 C -2.667969 14.054688 1.65625 3.722656 10.699219 0 L 10.410156 -0.105469 C 21.765625 -4.414062 34.460938 1.273438 38.804688 12.613281 C 43.148438 23.953125 37.503906 36.667969 26.179688 41.050781 C 14.855469 45.433594 2.121094 39.832031 -2.300781 28.523438 C -6.71875 17.210938 -1.160156 4.457031 10.132812 0 L 9.949219 -0.078125 C 20.027344 -1.984375 29.753906 4.609375 31.714844 14.679688 C 33.675781 24.746094 27.132812 34.507812 17.074219 36.523438 C 7.015625 38.535156 -2.78125 32.046875 -4.847656 22 C -6.914062 11.949219 -0.476562 2.121094 9.558594 0 C 9.417969 -0.0703125 9.277344 -0.140625 9.136719 -0.214844 L 8.894531 -0.339844 C 15.328125 -7.40625 26.261719 -7.953125 33.367188 -1.5625 C 40.476562 4.824219 41.09375 15.753906 34.75 22.902344 C 28.410156 30.050781 17.488281 30.738281 10.296875 24.445312 C 3.105469 18.148438 2.347656 7.230469 8.59375 0 L 8.46875 -0.0742188 C 18.601562 -1.820312 28.242188 4.945312 30.042969 15.070312 C 31.84375 25.191406 25.128906 34.871094 15.015625 36.726562 C 4.902344 38.582031 -4.808594 31.921875 -6.71875 21.816406 C -8.628906 11.714844 -2.019531 1.964844 8.074219 0 L 7.878906 -0.128906 C 13.160156 -9.890625 24.421875 -14.785156 35.160156 -11.996094 C 45.902344 -9.203125 53.351562 0.554688 53.21875 11.652344 C 53.082031 22.75 45.390625 32.320312 34.585938 34.847656 C 23.777344 37.371094 12.644531 32.199219 7.601562 22.3125 L 7.40625 22.160156 C 4.378906 19.769531 1.976562 16.5 0.835938 12.796875 C -0.359375 8.953125 -0.101562 4.640625 1.972656 1.140625 M 10.671875 0.835938 C 8.835938 3.539062 8.65625 6.898438 9.929688 9.882812 C 11.273438 13.050781 14.027344 15.539062 17.242188 16.714844 C 17.375 16.765625 17.507812 16.808594 17.640625 16.855469 L 17.816406 16.910156 C 18.007812 16.96875 18.195312 17.039062 18.390625 17.078125 C 27.273438 18.792969 29.683594 12.519531 30.324219 11.59375 C 28.214844 14.632812 24.667969 15.363281 20.316406 14.304688 C 19.972656 14.222656 19.59375 14.097656 19.261719 13.980469 C 22.402344 9.011719 28.488281 6.773438 34.097656 8.519531 C 39.710938 10.265625 43.449219 15.5625 43.214844 21.4375 C 42.980469 27.308594 38.828125 32.292969 33.097656 33.585938 C 27.363281 34.878906 21.476562 32.160156 18.742188 26.957031 C 14.847656 24 12.429688 18.363281 14.972656 13.773438 "/>
</g>
</svg>
