<?xml version="1.0" encoding="UTF-8"?>
<svg xmlns="http://www.w3.org/2000/svg" xmlns:xlink="http://www.w3.org/1999/xlink" width="50px" height="50px" viewBox="0 0 50 50" version="1.1">
<g id="surface1">
<path style=" stroke:none;fill-rule:nonzero;fill:rgb(0%,38.039216%,54.117647%);fill-opacity:1;" d="M 0.78125 35.335938 L 2.386719 35.335938 L 2.386719 29 L 4.871094 34.523438 C 5.164062 35.191406 5.566406 35.429688 6.351562 35.429688 C 7.140625 35.429688 7.523438 35.191406 7.816406 34.523438 L 10.300781 29 L 10.300781 35.335938 L 11.90625 35.335938 L 11.90625 29.007812 C 11.90625 28.390625 11.660156 28.09375 11.152344 27.9375 C 9.929688 27.558594 9.113281 27.886719 8.742188 28.710938 L 6.304688 34.164062 L 3.945312 28.710938 C 3.589844 27.886719 2.757812 27.558594 1.539062 27.9375 C 1.027344 28.09375 0.78125 28.390625 0.78125 29.007812 Z M 13.242188 30.175781 L 14.847656 30.175781 L 14.847656 33.667969 C 14.832031 33.859375 14.90625 34.304688 15.785156 34.316406 C 16.234375 34.324219 19.246094 34.316406 19.277344 34.316406 L 19.277344 30.160156 L 20.882812 30.160156 C 20.890625 30.160156 20.882812 35.828125 20.882812 35.851562 C 20.890625 37.25 19.148438 37.554688 18.34375 37.578125 L 13.277344 37.578125 L 13.277344 36.5 C 13.285156 36.5 18.339844 36.5 18.351562 36.496094 C 19.386719 36.390625 19.265625 35.875 19.261719 35.703125 L 19.261719 35.28125 L 15.851562 35.28125 C 14.265625 35.265625 13.253906 34.574219 13.242188 33.777344 C 13.242188 33.703125 13.277344 30.210938 13.242188 30.175781 Z M 13.242188 30.175781 "/>
<path style=" stroke:none;fill-rule:nonzero;fill:rgb(89.411765%,55.686275%,0%);fill-opacity:1;" d="M 22.121094 35.335938 L 26.734375 35.335938 C 27.273438 35.335938 27.800781 35.222656 28.21875 35.027344 C 28.910156 34.707031 29.25 34.277344 29.25 33.710938 L 29.25 32.539062 C 29.25 32.074219 28.863281 31.640625 28.109375 31.355469 C 27.707031 31.199219 27.214844 31.117188 26.734375 31.117188 L 24.789062 31.117188 C 24.140625 31.117188 23.832031 30.921875 23.757812 30.492188 C 23.742188 30.4375 23.742188 30.398438 23.742188 30.347656 L 23.742188 29.617188 C 23.742188 29.574219 23.742188 29.535156 23.757812 29.480469 C 23.832031 29.152344 24.003906 29.0625 24.574219 29.007812 L 24.730469 29 L 29.3125 29 L 29.3125 27.929688 L 24.804688 27.929688 C 24.15625 27.929688 23.820312 27.96875 23.511719 28.0625 C 22.554688 28.359375 22.136719 28.835938 22.136719 29.65625 L 22.136719 30.59375 C 22.136719 31.3125 22.953125 31.929688 24.328125 32.074219 C 24.484375 32.085938 24.636719 32.09375 24.789062 32.09375 L 26.457031 32.09375 C 26.519531 32.09375 26.582031 32.09375 26.628906 32.105469 C 27.136719 32.148438 27.351562 32.238281 27.507812 32.425781 C 18.554688 31.066406 12.394531 22.707031 13.753906 13.753906 C 15.113281 4.800781 23.46875 -1.359375 32.425781 0 L 32.425781 0.9375 C 32.425781 1.050781 32.347656 1.195312 32.191406 1.316406 C 32.054688 1.441406 31.824219 1.523438 31.515625 1.542969 L 31.34375 1.554688 L 22.121094 1.554688 Z M 39.261719 33.472656 C 39.261719 34.574219 40.078125 35.191406 41.730469 35.316406 C 41.886719 35.324219 42.039062 35.335938 42.195312 35.335938 L 46.375 35.335938 L 46.375 34.265625 L 42.164062 34.265625 C 41.222656 34.265625 40.867188 34.027344 40.867188 33.460938 L 40.867188 27.929688 L 39.261719 27.929688 Z M 30.273438 33.527344 L 30.273438 29.714844 C 30.273438 28.746094 30.953125 28.15625 32.300781 27.972656 C 24.574219 29.167969 17.34375 23.875 16.148438 16.148438 C 14.953125 8.425781 20.246094 1.195312 27.972656 0 L 31.019531 0 C 31.171875 0 31.3125 0.0117188 31.46875 0.03125 C 32.8125 0.214844 33.492188 0.804688 33.492188 1.773438 L 33.492188 5.585938 C 33.492188 6.375 33.203125 6.792969 32.539062 7.070312 L 34.121094 8.496094 L 32.253906 8.496094 L 30.976562 7.339844 L 29.6875 7.421875 L 27.972656 7.421875 C 25.921875 7.460938 24.230469 5.828125 24.195312 3.777344 C 24.15625 1.730469 25.789062 0.0351562 27.839844 0 C 26.816406 -0.277344 26.324219 -0.8125 26.324219 -1.699219 Z M 32.007812 33.4375 C 32.007812 33.488281 32.023438 33.539062 32.039062 33.601562 C 32.128906 34.046875 32.546875 34.292969 33.179688 34.292969 L 34.640625 34.292969 L 33.300781 33.082031 L 35.164062 33.082031 L 36.332031 34.136719 C 36.546875 34.023438 36.6875 33.847656 36.738281 33.621094 C 36.753906 33.570312 36.753906 33.519531 36.753906 33.46875 L 36.753906 29.808594 C 36.753906 29.765625 36.753906 29.714844 36.738281 29.664062 C 36.644531 29.25 36.226562 29.015625 35.609375 29.015625 L 33.179688 29.015625 C 32.46875 29.015625 32.007812 29.324219 32.007812 29.808594 Z M 32.007812 33.4375 "/>
<path style=" stroke:none;fill-rule:nonzero;fill:rgb(0%,38.039216%,54.117647%);fill-opacity:1;" d="M 47.789062 26.152344 C 46.800781 26.125 46.046875 26.21875 45.402344 26.488281 C 45.21875 26.566406 44.929688 26.570312 44.898438 26.796875 C 45 26.902344 45.015625 27.0625 45.09375 27.191406 C 45.25 27.441406 45.507812 27.773438 45.738281 27.949219 C 45.992188 28.140625 46.253906 28.34375 46.523438 28.507812 C 47.007812 28.804688 47.546875 28.972656 48.011719 29.265625 C 48.285156 29.441406 48.558594 29.660156 48.824219 29.855469 C 48.957031 29.953125 49.046875 30.105469 49.21875 30.164062 L 49.21875 30.136719 C 49.128906 30.023438 49.105469 29.863281 49.023438 29.742188 L 48.65625 29.378906 C 48.300781 28.90625 47.847656 28.488281 47.367188 28.144531 C 46.984375 27.871094 46.125 27.496094 45.964844 27.050781 L 45.9375 27.023438 C 46.207031 26.992188 46.527344 26.894531 46.777344 26.828125 C 47.199219 26.714844 47.574219 26.742188 48.011719 26.628906 L 48.601562 26.460938 L 48.601562 26.347656 C 48.378906 26.125 48.222656 25.824219 47.984375 25.621094 C 47.355469 25.085938 46.667969 24.550781 45.964844 24.105469 C 45.574219 23.859375 45.089844 23.699219 44.671875 23.488281 C 44.535156 23.417969 44.289062 23.382812 44.195312 23.261719 C 43.976562 22.984375 43.859375 22.632812 43.691406 22.308594 C 39.820312 39.773438 23.820312 51.828125 5.96875 50.730469 C -11.886719 49.632812 -26.289062 35.710938 -27.992188 17.902344 C -29.695312 0.0976562 -18.1875 -16.300781 -0.863281 -20.761719 C 16.457031 -25.222656 34.453125 -16.414062 41.558594 0 C 41.347656 -0.484375 41.207031 -0.964844 40.941406 -1.402344 C 39.667969 -3.496094 38.296875 -4.761719 36.171875 -6.003906 C 35.722656 -6.265625 35.175781 -6.371094 34.601562 -6.507812 L 33.675781 -6.5625 C 33.488281 -6.640625 33.292969 -6.871094 33.117188 -6.984375 C 32.414062 -7.429688 30.609375 -8.394531 30.085938 -7.125 C 29.757812 -6.320312 30.578125 -5.539062 30.871094 -5.132812 C 31.078125 -4.847656 31.34375 -4.527344 31.488281 -4.207031 C 31.585938 -3.996094 31.601562 -3.785156 31.6875 -3.5625 C 31.890625 -3.011719 32.066406 -2.414062 32.332031 -1.90625 C 32.464844 -1.648438 32.609375 -1.378906 32.78125 -1.148438 C 32.882812 -1.007812 33.058594 -0.945312 33.085938 -0.730469 C 32.914062 -0.488281 32.90625 -0.109375 32.808594 0.195312 C 32.367188 1.578125 32.535156 3.296875 33.171875 4.320312 C 33.367188 4.636719 33.828125 5.308594 34.460938 5.050781 C 35.015625 4.824219 34.894531 4.125 35.050781 3.507812 C 35.085938 3.367188 35.066406 3.265625 35.136719 3.171875 L 35.136719 3.199219 L 35.640625 4.207031 C 36.015625 4.808594 36.675781 5.4375 37.238281 5.863281 C 37.53125 6.082031 37.761719 6.464844 38.136719 6.59375 L 38.136719 6.5625 L 38.109375 6.5625 C 38.035156 6.449219 37.921875 6.402344 37.828125 6.3125 C 37.609375 6.097656 37.363281 5.828125 37.183594 5.582031 C 36.671875 4.890625 36.222656 4.128906 35.808594 3.339844 C 35.613281 2.960938 35.441406 2.542969 35.277344 2.160156 C 35.210938 2.011719 35.214844 1.789062 35.082031 1.710938 C 34.898438 1.992188 34.632812 2.222656 34.492188 2.554688 C 34.265625 3.085938 34.238281 3.734375 34.15625 4.40625 L 34.097656 4.433594 C 33.707031 4.339844 33.570312 3.9375 33.425781 3.589844 C 33.058594 2.71875 32.988281 1.3125 33.3125 0.308594 C 33.394531 0.0507812 33.773438 -0.769531 33.621094 -1.007812 C 33.546875 -1.25 33.308594 -1.386719 33.171875 -1.570312 C 34.5625 -3.339844 37.066406 -3.773438 38.964844 -2.570312 C 40.867188 -1.363281 41.546875 1.082031 40.542969 3.09375 C 39.535156 5.109375 37.167969 6.03125 35.066406 5.234375 C 32.960938 4.433594 31.804688 2.171875 32.386719 0 C 32.085938 -0.679688 31.945312 -1.445312 31.628906 -2.132812 C 31.476562 -2.460938 31.222656 -2.792969 31.011719 -3.085938 C 30.78125 -3.410156 30.519531 -3.648438 30.339844 -4.039062 C 30.273438 -4.179688 30.1875 -4.402344 30.28125 -4.542969 C 30.3125 -4.640625 30.355469 -4.679688 30.453125 -4.710938 C 30.613281 -4.835938 31.066406 -4.671875 31.238281 -4.601562 C 31.6875 -4.414062 32.0625 -4.234375 32.445312 -3.984375 C 32.625 -3.863281 32.8125 -3.628906 33.03125 -3.5625 L 33.285156 -3.5625 C 33.679688 -3.472656 34.121094 -3.535156 34.492188 -3.421875 C 35.144531 -3.222656 35.726562 -2.914062 36.257812 -2.582031 C 37.875 -1.558594 39.195312 -0.105469 40.101562 1.628906 C 40.246094 1.90625 40.308594 2.171875 40.4375 2.46875 C 40.695312 3.066406 41.023438 3.679688 41.277344 4.265625 C 41.535156 4.847656 41.785156 5.433594 42.148438 5.917969 C 42.339844 6.171875 43.078125 6.308594 43.410156 6.453125 C 43.644531 6.550781 44.03125 6.65625 44.253906 6.789062 C 44.675781 7.042969 45.089844 7.347656 45.488281 7.628906 C 45.6875 7.769531 46.296875 8.078125 46.328125 8.332031 Z M 35.25 15.464844 C 30.976562 15.449219 27.527344 11.976562 27.542969 7.703125 C 27.558594 3.433594 31.035156 -0.015625 35.304688 0 L 35.304688 0.0273438 L 35.332031 0.0273438 C 35.429688 0.230469 35.605469 0.359375 35.726562 0.53125 L 36.007812 1.121094 L 36.035156 1.09375 C 36.207031 0.972656 36.289062 0.777344 36.285156 0.476562 C 36.21875 0.402344 36.207031 0.3125 36.148438 0.222656 C 36.066406 0.105469 35.910156 0.0429688 35.808594 -0.0546875 Z M 35.25 15.464844 "/>
</g>
</svg>
