<?xml version="1.0" encoding="UTF-8"?>
<svg xmlns="http://www.w3.org/2000/svg" xmlns:xlink="http://www.w3.org/1999/xlink" width="50px" height="50px" viewBox="0 0 50 50" version="1.1">
<g id="surface1">
<path style=" stroke:none;fill-rule:nonzero;fill:rgb(51.372549%,80.392157%,16.078431%);fill-opacity:1;" d="M 44.050781 11.847656 L 26.824219 1.847656 C 25.738281 1.226562 24.324219 1.226562 23.230469 1.847656 L 5.820312 11.847656 C 4.699219 12.492188 3.90625 13.707031 3.90625 15.003906 L 3.90625 34.980469 C 3.90625 36.277344 4.71875 37.488281 5.839844 38.136719 L 10.441406 40.75 C 12.640625 41.832031 13.417969 41.832031 14.417969 41.832031 C 17.671875 41.832031 19.53125 39.863281 19.53125 36.429688 L 19.53125 16.707031 C 19.53125 16.429688 19.386719 16.015625 19.113281 16.015625 L 16.917969 16.015625 C 16.636719 16.015625 16.015625 16.429688 16.015625 16.707031 L 16.015625 36.429688 C 16.015625 37.953125 14.640625 39.46875 12.066406 38.179688 L 7.3125 35.441406 C 7.148438 35.351562 7.03125 35.171875 7.03125 34.980469 L 7.03125 15.003906 C 7.03125 14.8125 7.25 14.625 7.414062 14.527344 L 24.769531 4.542969 C 24.929688 4.453125 25.167969 4.453125 25.328125 4.542969 L 42.472656 14.527344 C 42.636719 14.625 42.578125 14.808594 42.578125 15.003906 L 42.578125 34.980469 C 42.578125 35.171875 42.648438 35.355469 42.488281 35.449219 L 25.265625 45.4375 C 25.117188 45.527344 24.933594 45.527344 24.773438 45.4375 L 20.355469 42.800781 C 20.222656 42.726562 20.066406 42.695312 19.9375 42.769531 C 18.707031 43.464844 18.480469 43.558594 17.328125 43.957031 C 17.046875 44.054688 16.628906 44.226562 17.488281 44.710938 L 23.269531 48.128906 C 9.980469 42.210938 4.003906 26.636719 9.925781 13.34375 C 15.847656 0.0546875 31.421875 -5.921875 44.710938 0 C 45.351562 0 45.980469 -0.167969 46.535156 -0.488281 L 63.675781 -10.480469 C 64.796875 -11.132812 65.328125 -12.339844 65.328125 -13.636719 L 65.328125 15.003906 C 65.328125 13.707031 64.796875 12.496094 63.675781 11.847656 Z M 30.433594 31.816406 C 25.851562 31.816406 24.84375 30.550781 24.507812 28.273438 C 24.46875 28.027344 24.261719 27.734375 24.011719 27.734375 L 21.773438 27.734375 C 21.496094 27.734375 21.273438 28.070312 21.273438 28.347656 C 21.273438 31.261719 22.859375 34.796875 30.433594 34.796875 C 35.917969 34.796875 39.0625 32.664062 39.0625 28.894531 C 39.0625 25.15625 36.535156 24.175781 31.21875 23.46875 C 25.84375 22.757812 25.296875 22.402344 25.296875 21.140625 C 25.296875 20.101562 25.757812 18.71875 29.738281 18.71875 C 33.296875 18.71875 34.605469 19.480469 35.144531 21.878906 C 35.191406 22.105469 35.398438 22.265625 35.628906 22.265625 L 37.878906 22.265625 C 38.015625 22.265625 38.148438 22.210938 38.246094 22.109375 C 38.339844 22.003906 38.386719 21.871094 38.375 21.730469 C 38.027344 17.601562 35.285156 15.675781 29.738281 15.675781 C 24.804688 15.675781 21.859375 17.761719 21.859375 21.253906 C 21.859375 25.039062 24.789062 26.085938 29.527344 26.554688 C 35.191406 27.113281 35.632812 27.941406 35.632812 29.054688 C 35.632812 30.988281 34.078125 31.816406 30.433594 31.816406 Z M 30.433594 31.816406 "/>
</g>
</svg>
