<?xml version="1.0" encoding="UTF-8"?>
<svg xmlns="http://www.w3.org/2000/svg" xmlns:xlink="http://www.w3.org/1999/xlink" width="50px" height="50px" viewBox="0 0 50 50" version="1.1">
<g id="surface1">
<path style=" stroke:none;fill-rule:evenodd;fill:rgb(79.607843%,40%,60%);fill-opacity:1;" d="M 0.476562 21.9375 C 0.476562 22.210938 0.558594 22.390625 0.601562 22.566406 C 0.898438 23.714844 1.53125 24.695312 2.285156 25.59375 C 3.359375 26.871094 4.671875 27.902344 6.015625 28.867188 C 7.183594 29.707031 8.375 30.527344 9.546875 31.359375 C 9.75 31.503906 9.9375 31.667969 10.15625 31.84375 C 9.96875 31.945312 9.8125 32.035156 9.652344 32.117188 C 8.105469 32.902344 6.617188 33.78125 5.246094 34.84375 C 4.417969 35.488281 3.617188 36.171875 3.054688 37.0625 C 2.148438 38.496094 1.824219 40.023438 2.5 41.65625 C 2.699219 42.132812 3 42.542969 3.425781 42.847656 C 3.5625 42.945312 3.71875 43.042969 3.878906 43.082031 C 4.292969 43.179688 4.714844 43.242188 5.132812 43.320312 L 6.316406 43.320312 C 7.628906 43.203125 8.820312 42.753906 9.898438 42.011719 C 11.582031 40.847656 12.71875 39.289062 13.207031 37.289062 C 13.558594 35.835938 13.574219 34.378906 13.15625 32.933594 C 4.0625 33.042969 -3.398438 25.757812 -3.507812 16.664062 C -3.617188 7.570312 3.667969 0.109375 12.761719 0 C 12.710938 -0.128906 12.648438 -0.257812 12.578125 -0.417969 L 15.265625 -1.964844 L 15.304688 -1.929688 C 15.257812 -1.769531 15.203125 -1.609375 15.160156 -1.449219 C 14.839844 -0.28125 14.628906 0.902344 14.707031 2.113281 C 14.785156 3.402344 15.148438 4.609375 15.902344 5.683594 C 16.511719 6.554688 17.964844 6.589844 18.613281 5.714844 C 18.84375 5.402344 19.066406 5.078125 19.234375 4.734375 C 19.671875 3.828125 20.078125 2.910156 20.496094 1.996094 L 20.570312 1.828125 C 20.539062 2.261719 20.503906 2.640625 20.488281 3.019531 C 20.464844 3.613281 20.496094 4.207031 20.703125 4.769531 C 20.875 5.253906 21.171875 5.617188 21.722656 5.679688 C 22.101562 5.722656 22.40625 5.550781 22.683594 5.328125 C 21.210938 10.121094 16.132812 12.8125 11.34375 11.34375 C 6.550781 9.871094 3.859375 4.792969 5.328125 0 C 6.070312 -1.363281 6.835938 -2.71875 7.507812 -4.117188 C 8.234375 -5.628906 8.871094 -7.1875 9.546875 -8.722656 L 9.660156 -8.996094 C 9.820312 -8.367188 9.929688 -7.753906 10.136719 -7.171875 C 10.375 -6.496094 10.667969 -5.835938 10.992188 -5.195312 C 11.140625 -4.894531 11.125 -4.695312 10.914062 -4.441406 C 10.03125 -3.378906 9.167969 -2.304688 8.300781 -1.230469 C 8.109375 -0.992188 7.917969 -0.753906 7.757812 -0.492188 C 8 -0.328125 8.1875 -0.0898438 8.289062 0.183594 L 12.0625 0.183594 C 13.273438 0.0976562 14.371094 -0.328125 15.34375 -1.046875 C 16.601562 -1.980469 17.007812 -3.25 16.703125 -4.757812 C 16.617188 -5.167969 16.472656 -5.566406 16.332031 -5.960938 C 16.265625 -6.136719 16.261719 -6.261719 16.378906 -6.429688 C 17.386719 -7.863281 18.246094 -9.386719 19.042969 -10.945312 C 19.074219 -11.007812 19.109375 -11.070312 19.164062 -11.136719 C 19.421875 -9.789062 19.8125 -8.488281 20.511719 -7.308594 C 20.152344 -6.964844 19.800781 -6.65625 19.480469 -6.3125 C 18.78125 -5.558594 18.171875 -4.738281 17.851562 -3.738281 C 17.714844 -3.304688 17.609375 -2.867188 17.671875 -2.40625 C 17.765625 -1.691406 18.351562 -1.226562 19.054688 -1.390625 C 20.5625 -1.738281 21.859375 -2.445312 22.808594 -3.703125 C 23.449219 -4.550781 23.507812 -5.492188 23.238281 -6.480469 C 23.167969 -6.75 23.078125 -7.015625 22.984375 -7.324219 C 23.355469 -7.4375 23.71875 -7.578125 24.09375 -7.664062 C 26.039062 -8.105469 27.960938 -8.027344 29.835938 -7.328125 C 30.929688 -6.917969 31.816406 -6.230469 32.339844 -5.148438 C 32.980469 -3.832031 32.625 -2.578125 31.382812 -1.742188 C 31.265625 -1.667969 31.132812 -1.605469 31.035156 -1.507812 C 31.503906 -1.578125 31.941406 -1.257812 32.011719 -0.792969 C 32.085938 -0.324219 31.765625 0.113281 31.296875 0.1875 C 31.304688 0.234375 31.433594 0.292969 31.507812 0.292969 C 31.914062 0.289062 32.246094 0.0742188 32.566406 -0.144531 C 33.363281 -0.695312 33.945312 -1.441406 34.070312 -2.417969 L 34.09375 -2.492188 L 34.066406 -3.128906 C 34.054688 -3.164062 34.074219 -3.199219 34.070312 -3.226562 C 33.902344 -4.652344 33.140625 -5.757812 32.035156 -6.621094 C 30.753906 -7.625 29.242188 -8.035156 27.640625 -8.101562 C 29.039062 -5.558594 29.253906 -2.53125 28.226562 0.1875 C 27.878906 0.3125 27.53125 0.460938 27.179688 0.605469 C 27.128906 0.519531 27.078125 0.4375 27.039062 0.351562 C 26.675781 -0.386719 26.238281 -1.097656 26.140625 -1.945312 C 26.070312 -2.546875 25.988281 -3.152344 26.132812 -3.746094 C 26.269531 -4.320312 26.449219 -4.886719 26.617188 -5.453125 C 26.703125 -5.742188 26.644531 -5.90625 26.367188 -6.039062 C 28.082031 -6.007812 29.453125 -4.59375 29.425781 -2.875 C 29.398438 -1.15625 27.984375 0.214844 26.265625 0.183594 C 25.582031 0.0859375 24.90625 0.144531 24.246094 0.335938 C 24.011719 0.402344 23.839844 0.535156 23.789062 0.792969 C 23.757812 0.941406 23.699219 1.085938 23.65625 1.234375 C 23.484375 1.84375 23.359375 2.464844 23.082031 3.046875 C 22.378906 4.507812 21.578125 5.910156 20.761719 7.304688 C 20.671875 7.453125 20.578125 7.601562 20.46875 7.785156 C 20.179688 7.183594 19.875 6.644531 19.78125 6.011719 C 19.675781 5.292969 19.59375 4.578125 19.769531 3.871094 C 19.902344 3.339844 20.074219 2.820312 20.234375 2.296875 C 20.3125 2.050781 20.277344 1.917969 20.050781 1.789062 C 19.9375 1.722656 19.808594 1.664062 19.679688 1.644531 C 19.65625 1.152344 19.714844 0.660156 19.851562 0.183594 C 19.640625 0.253906 19.527344 0.390625 19.464844 0.609375 C 19.273438 1.253906 19.109375 1.917969 18.84375 2.53125 C 17.757812 5.015625 16.644531 7.484375 15.53125 9.957031 C 15.296875 10.472656 15.027344 10.972656 14.765625 11.472656 C 14.695312 11.601562 14.601562 11.710938 14.515625 11.832031 C 14.449219 11.753906 14.425781 11.699219 14.425781 11.644531 C 14.429688 11.328125 14.390625 11 14.449219 10.695312 C 23.726562 45.542969 3.871094 81.503906 -30.558594 92.222656 C -64.992188 102.9375 -101.75 84.59375 -113.882812 50.636719 C -126.019531 16.675781 -109.21875 -20.808594 -75.792969 -34.34375 C -42.367188 -47.878906 -4.21875 -32.648438 10.695312 0.183594 C 10.878906 -0.574219 11.09375 -1.328125 11.296875 -2.082031 C 11.363281 -2.335938 11.363281 -2.570312 11.183594 -2.785156 C 10.878906 -3.140625 10.242188 -3.21875 9.863281 -2.945312 L 9.695312 -2.851562 L 9.726562 -3.121094 C 9.808594 -3.695312 9.824219 -4.273438 9.664062 -4.84375 C 9.46875 -5.550781 8.960938 -5.960938 8.226562 -5.9375 C 7.882812 -5.925781 7.523438 -5.867188 7.203125 -5.742188 C 5.867188 -5.21875 4.839844 -4.292969 3.96875 -3.175781 C 4.894531 -3.246094 5.707031 -2.550781 5.777344 -1.625 C 5.847656 -0.695312 5.152344 0.113281 4.222656 0.183594 C 3.09375 0.8125 1.960938 1.429688 0.824219 2.050781 L -0.433594 2.742188 C -0.773438 2.421875 -1.082031 2.085938 -1.429688 1.800781 C -2.496094 0.933594 -3.578125 0.0859375 -4.648438 -0.773438 C -5.601562 -1.535156 -6.523438 -2.328125 -7.226562 -3.335938 C -7.75 -4.085938 -8.089844 -4.90625 -8.121094 -5.835938 C -8.164062 -7.015625 -7.828125 -8.09375 -7.226562 -9.101562 C -6.457031 -10.386719 -5.40625 -11.417969 -4.253906 -12.351562 C -3.03125 -13.339844 -1.710938 -14.179688 -0.34375 -14.945312 C 1.570312 -16.019531 3.539062 -16.964844 5.652344 -17.59375 C 7.816406 -18.234375 10.011719 -18.601562 12.277344 -18.347656 C 13.167969 -18.246094 14.035156 -18.042969 14.828125 -17.605469 C 15.4375 -17.273438 15.9375 -16.835938 16.167969 -16.15625 C 16.394531 -15.484375 16.390625 -14.804688 16.230469 -14.121094 C 15.910156 -12.742188 15.152344 -11.601562 14.203125 -10.585938 C 12.640625 -8.917969 10.738281 -7.785156 8.59375 -7.035156 C 9.574219 -14.78125 16.191406 -20.574219 24 -20.523438 C 31.808594 -20.472656 38.34375 -14.589844 39.21875 -6.828125 C 40.09375 0.929688 35.03125 8.117188 27.429688 9.90625 C 19.828125 11.695312 12.085938 7.519531 9.410156 0.183594 C 8.34375 0.273438 7.300781 0.179688 6.289062 -0.191406 C 5.621094 -0.4375 5.039062 -0.8125 4.570312 -1.355469 C 4.488281 -1.453125 4.382812 -1.5625 4.226562 -1.46875 C 4.074219 -1.378906 4.046875 -1.234375 4.097656 -1.085938 C 4.183594 -0.84375 4.261719 -0.585938 4.394531 -0.367188 C 4.730469 0.179688 5.21875 0.578125 5.753906 0.917969 C 6.789062 1.574219 7.941406 1.796875 9.136719 1.847656 C 10.953125 1.925781 12.726562 1.65625 14.472656 1.167969 C 16.964844 0.472656 19.132812 -0.753906 20.871094 -2.691406 C 22.320312 -4.304688 23.351562 -6.125 23.574219 -8.324219 C 23.683594 -9.398438 23.566406 -10.449219 23.066406 -11.429688 C 22.519531 -12.488281 21.652344 -13.277344 20.617188 -13.820312 C 26.859375 7.101562 25.230469 6.640625 23.550781 6.640625 L 21.867188 6.640625 C 19.832031 6.640625 17.863281 7.222656 15.949219 7.917969 C 14.503906 8.445312 13.082031 9.070312 11.703125 9.757812 C 8.703125 11.257812 5.910156 13.0625 3.613281 15.550781 C 2.46875 16.789062 1.5 18.15625 0.945312 19.765625 C -3.167969 13.6875 -2.5625 5.582031 2.40625 0.1875 M 13.28125 14.253906 C 13.152344 15.996094 12.363281 17.40625 11.070312 18.550781 C 10.347656 19.195312 9.515625 19.652344 8.542969 19.8125 C 8.191406 19.871094 7.832031 19.882812 7.492188 19.738281 C 7.003906 19.53125 6.898438 19.101562 6.886719 18.640625 C 6.875 17.90625 7.128906 17.246094 7.480469 16.613281 C 7.941406 15.792969 8.613281 15.164062 9.332031 14.582031 C 10.464844 13.65625 11.695312 12.878906 12.953125 12.140625 L 13.046875 12.101562 C 13.242188 12.820312 13.335938 13.53125 13.28125 14.253906 Z M 21.210938 27.726562 C 21.121094 28.28125 21.003906 28.839844 20.84375 29.378906 C 20.28125 31.246094 19.558594 33.054688 18.78125 34.835938 C 18.636719 35.167969 18.425781 35.46875 18.242188 35.78125 C 8.414062 35.746094 0.476562 27.746094 0.511719 17.917969 C 0.546875 8.089844 8.542969 0.148438 18.375 0.183594 C 18.148438 0.410156 17.933594 0.398438 17.820312 0.105469 C 17.6875 -0.234375 17.605469 -0.597656 17.535156 -0.957031 C 17.488281 -1.195312 17.5 -1.449219 17.484375 -1.695312 C 17.5 -3.453125 18.035156 -5.046875 18.945312 -6.53125 C 19.320312 -7.144531 19.726562 -7.730469 20.347656 -8.117188 C 22.640625 -0.253906 18.128906 7.976562 10.265625 10.265625 C 2.40625 12.558594 -5.824219 8.046875 -8.117188 0.1875 C -7.785156 0.09375 -7.582031 0.246094 -7.636719 0.578125 Z M 27.917969 36.269531 L 30.328125 33.453125 C 30.425781 34.5 28.652344 36.585938 27.917969 36.269531 Z M 35.613281 34.375 C 35.441406 34.472656 35.257812 34.542969 35.082031 34.632812 C 34.921875 34.714844 34.871094 34.632812 34.867188 34.496094 C 25.390625 34.597656 17.628906 27 17.527344 17.527344 C 17.421875 8.050781 25.019531 0.289062 34.496094 0.1875 C 34.820312 -0.960938 35.417969 -1.941406 36.3125 -2.738281 L 36.375 -2.769531 C 36.796875 -1.585938 36.308594 -0.285156 35.207031 0.347656 Z M 35.613281 34.375 "/>
</g>
</svg>
