<?xml version="1.0" encoding="UTF-8"?>
<svg xmlns="http://www.w3.org/2000/svg" xmlns:xlink="http://www.w3.org/1999/xlink" width="50px" height="50px" viewBox="0 0 50 50" version="1.1">
<defs>
<linearGradient id="linear0" gradientUnits="userSpaceOnUse" x1="2.21" y1="511.596" x2="3.211" y2="511.596" gradientTransform="matrix(10.612332,2.202773,-3.671289,6.367402,1854.487109,-3238.532422)">
<stop offset="0" style="stop-color:rgb(13.333333%,59.607843%,74.117647%);stop-opacity:1;"/>
<stop offset="1" style="stop-color:rgb(5.490196%,84.313725%,70.980392%);stop-opacity:1;"/>
</linearGradient>
</defs>
<g id="surface1">
<path style=" stroke:none;fill-rule:nonzero;fill:url(#linear0);" d="M 5.167969 21.902344 C 3.789062 21.902344 2.929688 22.597656 2.585938 23.976562 C 3.105469 23.28125 3.710938 23.027344 4.394531 23.203125 C 4.785156 23.300781 5.070312 23.585938 5.378906 23.90625 C 5.886719 24.421875 6.472656 25.019531 7.753906 25.019531 C 9.128906 25.019531 9.988281 24.324219 10.332031 22.949219 C 9.8125 23.640625 9.207031 23.898438 8.523438 23.722656 C 8.132812 23.625 7.851562 23.339844 7.539062 23.019531 C 7.03125 22.5 6.445312 21.902344 5.167969 21.902344 Z M 2.578125 25 C 1.199219 25 0.34375 25.691406 0 27.070312 C 0.515625 26.375 1.121094 26.125 1.804688 26.296875 C 2.195312 26.394531 2.480469 26.679688 2.792969 27 C 3.300781 27.519531 3.886719 28.117188 5.167969 28.117188 C 6.542969 28.117188 7.402344 27.421875 7.742188 26.046875 C 7.226562 26.738281 6.621094 26.992188 5.9375 26.816406 C 5.546875 26.71875 5.265625 26.4375 4.953125 26.113281 C 4.453125 25.59375 3.867188 25 2.578125 25 Z M 2.578125 25 "/>
<path style=" stroke:none;fill-rule:nonzero;fill:rgb(17.647059%,21.568627%,28.235294%);fill-opacity:1;" d="M 15.5 24.511719 L 14.601562 24.511719 L 14.601562 26.261719 C 14.601562 26.730469 14.902344 26.71875 15.496094 26.6875 L 15.496094 27.390625 C 14.285156 27.539062 13.808594 27.207031 13.808594 26.261719 L 13.808594 24.511719 L 13.144531 24.511719 L 13.144531 23.757812 L 13.808594 23.757812 L 13.808594 22.78125 L 14.589844 22.550781 L 14.589844 23.757812 L 15.488281 23.757812 L 15.488281 24.511719 Z M 18.9375 23.757812 L 19.71875 23.757812 L 19.71875 27.390625 L 18.9375 27.390625 L 18.9375 26.863281 C 18.660156 27.246094 18.234375 27.480469 17.667969 27.480469 C 16.679688 27.480469 15.859375 26.640625 15.859375 25.566406 C 15.859375 24.484375 16.679688 23.652344 17.667969 23.652344 C 18.234375 23.652344 18.660156 23.886719 18.9375 24.265625 Z M 17.78125 26.738281 C 18.4375 26.738281 18.9375 26.25 18.9375 25.578125 C 18.9375 24.902344 18.4375 24.414062 17.78125 24.414062 C 17.128906 24.414062 16.628906 24.902344 16.628906 25.578125 C 16.640625 26.25 17.128906 26.738281 17.78125 26.738281 Z M 21.023438 23.214844 C 20.75 23.214844 20.527344 22.976562 20.527344 22.714844 C 20.527344 22.441406 20.75 22.21875 21.023438 22.21875 C 21.296875 22.21875 21.523438 22.441406 21.523438 22.714844 C 21.53125 22.976562 21.296875 23.214844 21.023438 23.214844 Z M 20.632812 27.390625 L 20.632812 23.757812 L 21.414062 23.757812 L 21.414062 27.390625 Z M 22.324219 27.390625 L 22.324219 22.089844 L 23.105469 22.089844 L 23.105469 27.390625 Z M 28.214844 23.757812 L 29.042969 23.757812 L 27.902344 27.390625 L 27.128906 27.390625 L 26.375 24.941406 L 25.613281 27.390625 L 24.84375 27.390625 L 23.703125 23.757812 L 24.53125 23.757812 L 25.234375 26.269531 L 25.996094 23.757812 L 26.75 23.757812 L 27.5 26.269531 Z M 30.007812 23.210938 C 29.734375 23.210938 29.511719 22.976562 29.511719 22.714844 C 29.511719 22.441406 29.734375 22.21875 30.007812 22.21875 C 30.28125 22.21875 30.507812 22.441406 30.507812 22.714844 C 30.515625 22.976562 30.292969 23.214844 30.007812 23.214844 Z M 29.617188 27.390625 L 29.617188 23.757812 L 30.398438 23.757812 L 30.398438 27.390625 Z M 33.222656 23.664062 C 34.03125 23.664062 34.617188 24.21875 34.617188 25.15625 L 34.617188 27.390625 L 33.835938 27.390625 L 33.835938 25.242188 C 33.835938 24.6875 33.515625 24.40625 33.027344 24.40625 C 32.511719 24.40625 32.101562 24.707031 32.101562 25.449219 L 32.101562 27.402344 L 31.320312 27.402344 L 31.320312 23.769531 L 32.101562 23.769531 L 32.101562 24.238281 C 32.34375 23.847656 32.734375 23.660156 33.222656 23.660156 Z M 38.351562 22.304688 L 39.132812 22.304688 L 39.132812 27.390625 L 38.351562 27.390625 L 38.351562 26.863281 C 38.078125 27.246094 37.648438 27.480469 37.082031 27.480469 C 36.09375 27.480469 35.273438 26.640625 35.273438 25.566406 C 35.273438 24.484375 36.09375 23.652344 37.082031 23.652344 C 37.648438 23.652344 38.078125 23.886719 38.351562 24.265625 Z M 37.199219 26.738281 C 37.851562 26.738281 38.351562 26.25 38.351562 25.578125 C 38.351562 24.902344 37.851562 24.414062 37.199219 24.414062 C 36.542969 24.414062 36.042969 24.902344 36.042969 25.578125 C 36.042969 26.25 36.542969 26.738281 37.199219 26.738281 Z M 41.757812 27.492188 C 40.664062 27.492188 39.835938 26.652344 39.835938 25.578125 C 39.835938 24.492188 40.652344 23.660156 41.757812 23.660156 C 42.472656 23.660156 43.085938 24.03125 43.378906 24.601562 L 42.703125 24.992188 C 42.550781 24.648438 42.1875 24.433594 41.75 24.433594 C 41.105469 24.433594 40.625 24.921875 40.625 25.578125 C 40.625 26.230469 41.113281 26.71875 41.75 26.71875 C 42.1875 26.71875 42.539062 26.492188 42.714844 26.164062 L 43.386719 26.542969 C 43.09375 27.121094 42.472656 27.492188 41.757812 27.492188 Z M 44.699219 24.757812 C 44.699219 25.421875 46.652344 25.019531 46.652344 26.367188 C 46.652344 27.089844 46.015625 27.492188 45.234375 27.492188 C 44.511719 27.492188 43.984375 27.15625 43.75 26.640625 L 44.425781 26.25 C 44.539062 26.582031 44.832031 26.777344 45.234375 26.777344 C 45.585938 26.777344 45.851562 26.660156 45.851562 26.367188 C 45.851562 25.722656 43.898438 26.082031 43.898438 24.785156 C 43.898438 24.101562 44.484375 23.671875 45.222656 23.671875 C 45.820312 23.671875 46.316406 23.945312 46.574219 24.421875 L 45.90625 24.796875 C 45.78125 24.511719 45.527344 24.386719 45.222656 24.386719 C 44.941406 24.375 44.699219 24.503906 44.699219 24.757812 Z M 48.046875 24.757812 C 48.046875 25.421875 50 25.019531 50 26.367188 C 50 27.089844 49.367188 27.492188 48.585938 27.492188 C 47.859375 27.492188 47.335938 27.15625 47.101562 26.640625 L 47.773438 26.25 C 47.890625 26.582031 48.183594 26.777344 48.585938 26.777344 C 48.933594 26.777344 49.199219 26.660156 49.199219 26.367188 C 49.199219 25.722656 47.246094 26.082031 47.246094 24.785156 C 47.246094 24.101562 47.832031 23.671875 48.574219 23.671875 C 49.171875 23.671875 49.667969 23.945312 49.921875 24.421875 L 49.257812 24.796875 C 49.128906 24.511719 48.875 24.386719 48.574219 24.386719 C 48.289062 24.375 48.046875 24.503906 48.046875 24.757812 Z M 48.046875 24.757812 "/>
</g>
</svg>
